<svg width="512" height="512" viewBox="0 0 512 512" fill="none" xmlns="http://www.w3.org/2000/svg">
<path d="M300.689 222.021H342.555C348.345 222.021 353.055 217.311 353.055 211.521V169.655C353.055 163.865 348.345 159.155 342.555 159.155H300.689C294.899 159.155 290.189 163.865 290.189 169.655V211.521C290.189 217.311 294.899 222.021 300.689 222.021ZM305.189 174.155H338.055V207.021H305.189V174.155Z" fill="#673231"/>
<path d="M382.651 294.377C378.508 294.377 375.151 297.735 375.151 301.877V356.325C375.151 360.467 378.508 363.825 382.651 363.825H423.936C428.079 363.825 431.436 360.467 431.436 356.325C431.436 352.183 428.079 348.825 423.936 348.825H390.151V301.877C390.151 297.735 386.794 294.377 382.651 294.377Z" fill="#673231"/>
<path d="M478.399 269.45C458.421 247.457 431.754 233.101 402.716 228.555V66.7762C402.716 54.3692 392.622 44.2762 380.216 44.2762H353.055V33.8262C353.055 29.6842 349.698 26.3262 345.555 26.3262C341.412 26.3262 338.055 29.6842 338.055 33.8262V44.2762H130C125.857 44.2762 122.5 47.6342 122.5 51.7762C122.5 55.9182 125.857 59.2762 130 59.2762H338.056V75.7092C338.056 79.8512 341.413 83.2092 345.556 83.2092C349.699 83.2092 353.056 79.8512 353.056 75.7092V59.2762H380.217C384.353 59.2762 387.717 62.6402 387.717 66.7762V116.075H15V66.7762C15 62.6402 18.364 59.2762 22.5 59.2762H49.661V75.7092C49.661 79.8512 53.018 83.2092 57.161 83.2092C61.304 83.2092 64.661 79.8512 64.661 75.7092V59.2762H95C99.143 59.2762 102.5 55.9182 102.5 51.7762C102.5 47.6342 99.143 44.2762 95 44.2762H64.661V33.8262C64.661 29.6842 61.304 26.3262 57.161 26.3262C53.018 26.3262 49.661 29.6842 49.661 33.8262V44.2762H22.5C10.094 44.2762 0 54.3702 0 66.7762V411.33C0 423.737 10.094 433.83 22.5 433.83H58C62.143 433.83 65.5 430.472 65.5 426.33C65.5 422.188 62.143 418.83 58 418.83H22.5C18.364 418.83 15 415.466 15 411.33V131.076H387.717V259.807C386.039 259.72 384.351 259.675 382.652 259.675C372.387 259.675 362.433 261.311 353.056 264.34V252.225C353.056 246.435 348.346 241.725 342.556 241.725H300.69C294.9 241.725 290.19 246.435 290.19 252.225V294.091C290.19 299.881 294.9 304.591 300.69 304.591H301.036C294.762 314.453 290.193 325.559 287.831 337.551C287.03 341.615 289.676 345.558 293.74 346.359C297.805 347.164 301.748 344.514 302.548 340.45C310.055 302.338 343.743 274.675 382.652 274.675C427.674 274.675 464.303 311.303 464.303 356.326C464.303 401.349 427.674 437.977 382.652 437.977C343.901 437.977 310.239 410.449 302.609 372.522C301.792 368.461 297.838 365.83 293.777 366.648C289.716 367.465 287.087 371.419 287.904 375.48C291.21 391.915 298.657 406.688 309.002 418.831H93C88.857 418.831 85.5 422.189 85.5 426.331C85.5 430.473 88.857 433.831 93 433.831H279.178C303.607 466.367 341.994 485.675 382.652 485.675C453.974 485.675 512 427.65 512 356.327C512 324.156 500.067 293.303 478.399 269.45ZM338.056 270.62C328.647 275.529 320.111 281.951 312.794 289.591H305.19V256.725H338.056V270.62ZM382.652 470.673C350.646 470.673 320.234 457.121 298.701 433.829H325.018C341.259 445.907 361.3 452.975 382.651 452.975C435.945 452.975 479.302 409.618 479.302 356.324C479.302 309.909 446.413 271.036 402.716 261.774V243.763C427.474 248.166 450.162 260.673 467.295 279.535C486.451 300.623 497 327.894 497 356.325C497 419.377 445.704 470.673 382.652 470.673Z" fill="#673231"/>
<path d="M93.858 89.1011C93.858 93.2431 97.215 96.6011 101.358 96.6011H301.358C305.501 96.6011 308.858 93.2431 308.858 89.1011C308.858 84.9591 305.501 81.6011 301.358 81.6011H101.358C97.216 81.6011 93.858 84.9581 93.858 89.1011Z" fill="#673231"/>
<path d="M110.068 326.618C106.501 324.511 101.903 325.694 99.796 329.26L77.722 366.622L62.955 348.656C60.325 345.455 55.598 344.993 52.399 347.624C49.199 350.254 48.737 354.98 51.367 358.18L72.935 384.422C74.366 386.163 76.496 387.16 78.728 387.16C78.92 387.16 79.114 387.153 79.307 387.138C81.746 386.95 83.942 385.582 85.186 383.475L112.709 336.89C114.817 333.324 113.634 328.725 110.068 326.618Z" fill="#673231"/>
<path d="M60.161 222.021H102.027C107.817 222.021 112.527 217.311 112.527 211.521V169.655C112.527 163.865 107.817 159.155 102.027 159.155H60.161C54.371 159.155 49.661 163.865 49.661 169.655V211.521C49.661 217.311 54.371 222.021 60.161 222.021ZM64.661 174.155H97.527V207.021H64.661V174.155Z" fill="#673231"/>
<path d="M140.337 222.021H182.203C187.993 222.021 192.703 217.311 192.703 211.521V169.655C192.703 163.865 187.993 159.155 182.203 159.155H140.337C134.547 159.155 129.837 163.865 129.837 169.655V211.521C129.837 217.311 134.547 222.021 140.337 222.021ZM144.837 174.155H177.703V207.021H144.837V174.155Z" fill="#673231"/>
<path d="M220.513 222.021H262.38C268.17 222.021 272.88 217.311 272.88 211.521V169.655C272.88 163.865 268.17 159.155 262.38 159.155H220.513C214.723 159.155 210.013 163.865 210.013 169.655V211.521C210.013 217.311 214.723 222.021 220.513 222.021ZM225.013 174.155H257.88V207.021H225.013V174.155Z" fill="#673231"/>
<path d="M49.661 294.091C49.661 299.881 54.371 304.591 60.161 304.591H102.027C107.817 304.591 112.527 299.881 112.527 294.091V252.225C112.527 246.435 107.817 241.725 102.027 241.725H60.161C54.371 241.725 49.661 246.435 49.661 252.225V294.091ZM64.661 256.725H97.527V289.591H64.661V256.725Z" fill="#673231"/>
<path d="M129.837 294.091C129.837 299.881 134.547 304.591 140.337 304.591H182.203C187.993 304.591 192.703 299.881 192.703 294.091V252.225C192.703 246.435 187.993 241.725 182.203 241.725H140.337C134.547 241.725 129.837 246.435 129.837 252.225V294.091ZM144.837 256.725H177.703V289.591H144.837V256.725Z" fill="#673231"/>
<path d="M210.013 294.091C210.013 299.881 214.723 304.591 220.513 304.591H262.38C268.17 304.591 272.88 299.881 272.88 294.091V252.225C272.88 246.435 268.17 241.725 262.38 241.725H220.513C214.723 241.725 210.013 246.435 210.013 252.225V294.091ZM225.013 256.725H257.88V289.591H225.013V256.725Z" fill="#673231"/>
<path d="M129.837 376.66C129.837 382.45 134.547 387.16 140.337 387.16H182.203C187.993 387.16 192.703 382.45 192.703 376.66V334.794C192.703 329.004 187.993 324.294 182.203 324.294H140.337C134.547 324.294 129.837 329.004 129.837 334.794V376.66ZM144.837 339.294H177.703V372.16H144.837V339.294Z" fill="#673231"/>
<path d="M210.013 376.66C210.013 382.45 214.723 387.16 220.513 387.16H262.38C268.17 387.16 272.88 382.45 272.88 376.66V334.794C272.88 329.004 268.17 324.294 262.38 324.294H220.513C214.723 324.294 210.013 329.004 210.013 334.794V376.66ZM225.013 339.294H257.88V372.16H225.013V339.294Z" fill="#673231"/>
</svg>
