<svg width="512" height="512" viewBox="0 0 512 512" fill="none" xmlns="http://www.w3.org/2000/svg">
<g clip-path="url(#clip0_5_135)">
<path d="M258.803 480.827C246.396 480.827 236.303 470.733 236.303 458.327C236.303 445.921 246.396 435.827 258.803 435.827C271.21 435.827 281.303 445.921 281.303 458.327C281.303 470.733 271.209 480.827 258.803 480.827ZM258.803 450.827C254.668 450.827 251.303 454.191 251.303 458.327C251.303 462.463 254.668 465.827 258.803 465.827C262.939 465.827 266.303 462.463 266.303 458.327C266.303 454.191 262.938 450.827 258.803 450.827ZM328.853 474.53C326.2 474.53 323.565 473.699 321.313 472.062C317.328 469.166 315.37 464.352 316.203 459.498L317.912 449.529L310.669 442.468C307.142 439.031 305.896 433.986 307.418 429.3C308.94 424.614 312.915 421.265 317.79 420.557L327.798 419.103L332.275 410.032C334.455 405.615 338.869 402.872 343.795 402.871C348.721 402.871 353.135 405.615 355.316 410.032L359.792 419.102L369.801 420.557C374.675 421.264 378.649 424.615 380.172 429.299C381.694 433.985 380.449 439.03 376.921 442.469L369.678 449.529L371.388 459.499C372.221 464.353 370.262 469.168 366.277 472.063C362.292 474.958 357.107 475.333 352.748 473.041L343.796 468.334L334.843 473.041C332.947 474.037 330.895 474.53 328.853 474.53ZM324.266 434.774L329.195 439.579C332.223 442.53 333.604 446.781 332.889 450.949L331.725 457.733L337.818 454.53C341.562 452.564 346.03 452.564 349.773 454.529L355.867 457.733L354.703 450.949C353.989 446.782 355.369 442.532 358.396 439.58L363.326 434.774L356.514 433.784C352.329 433.177 348.713 430.55 346.841 426.757L343.795 420.583L340.749 426.757C338.877 430.549 335.261 433.177 331.076 433.784L324.266 434.774ZM194.417 460.937C190.006 460.937 186.417 457.348 186.417 452.937C186.417 448.526 190.006 444.937 194.417 444.937C198.828 444.937 202.417 448.526 202.417 452.937C202.417 457.348 198.829 460.937 194.417 460.937ZM147.417 441.937C143.006 441.937 139.417 438.348 139.417 433.937C139.417 429.526 143.006 425.937 147.417 425.937C151.828 425.937 155.417 429.526 155.417 433.937C155.417 438.348 151.829 441.937 147.417 441.937ZM422.838 435.937C419.74 435.937 416.664 434.966 414.035 433.055C409.382 429.674 407.096 424.052 408.068 418.384L410.735 402.836L399.439 391.824C395.32 387.809 393.866 381.918 395.643 376.448C397.42 370.977 402.06 367.065 407.751 366.238L423.363 363.969L430.345 349.823C432.89 344.666 438.045 341.462 443.796 341.462C449.547 341.462 454.701 344.666 457.247 349.823L464.229 363.969L479.841 366.238C485.533 367.065 490.173 370.978 491.95 376.448C493.727 381.918 492.272 387.809 488.154 391.824L476.858 402.835L479.525 418.385C480.497 424.053 478.211 429.674 473.558 433.055C468.904 436.435 462.852 436.873 457.761 434.198L443.797 426.856L429.834 434.198C427.619 435.362 425.222 435.937 422.838 435.937ZM443.796 411.856C446.193 411.856 448.59 412.43 450.775 413.579L464.739 420.921L462.072 405.372C461.237 400.505 462.85 395.541 466.387 392.094L477.682 381.084L462.071 378.814C457.185 378.105 452.962 375.038 450.777 370.608L443.796 356.462L436.815 370.608C434.628 375.037 430.406 378.104 425.519 378.813L409.909 381.082L421.206 392.094C424.742 395.541 426.355 400.505 425.519 405.372L422.852 420.92L436.815 413.578C439.001 412.43 441.399 411.856 443.796 411.856ZM232.814 401.338C214.69 401.338 196.478 398.608 178.671 393.096C149.44 384.048 122.942 367.799 101.772 345.982L82.007 350.474C76.152 351.804 70.092 349.798 66.195 345.237C62.279 340.652 61.24 334.32 63.484 328.71C68.658 315.772 75.05 303.536 82.613 292.068L66.43 281.551C62.957 279.293 61.971 274.649 64.228 271.175C66.484 267.701 71.13 266.714 74.603 268.973L91.34 279.85C98.323 270.8 106.103 262.297 114.654 254.378C115.458 253.633 116.269 252.894 117.083 252.163L101.063 231.529C98.522 228.258 99.116 223.546 102.387 221.006C105.66 218.466 110.37 219.059 112.911 222.33L128.603 242.542C138.638 234.758 149.283 227.974 160.403 222.242L151.676 195.846C150.376 191.913 152.51 187.671 156.443 186.37C160.377 185.069 164.618 187.204 165.919 191.137L174.081 215.825C185.56 210.951 197.465 207.145 209.681 204.45V174.619C209.681 170.476 213.039 167.119 217.181 167.119C221.323 167.119 224.681 170.476 224.681 174.619V201.723C236.811 199.982 249.183 199.313 261.687 199.763L271.736 167.922C272.983 163.972 277.192 161.775 281.146 163.026C285.096 164.273 287.288 168.485 286.041 172.435L277.064 200.879C289.356 202.228 301.395 204.656 313.065 208.112L333.19 177.664C335.474 174.21 340.127 173.259 343.583 175.543C347.039 177.827 347.988 182.48 345.704 185.936L327.761 213.082C339.148 217.423 350.117 222.778 360.558 229.1L390.14 202.686C393.23 199.927 397.972 200.197 400.729 203.286C403.488 206.376 403.22 211.117 400.13 213.876L373.519 237.637C383.299 244.624 392.526 252.518 401.095 261.27L458.367 230.203C444.338 214.659 403.925 175.905 336.087 157.755C332.086 156.685 329.71 152.572 330.78 148.571C331.85 144.57 335.964 142.195 339.964 143.264C430.855 167.582 474.264 225.516 476.068 227.97C477.351 229.717 477.816 231.933 477.343 234.048C476.87 236.163 475.505 237.971 473.6 239.004L405.853 275.753C391.044 320.95 359.815 357.964 317.64 380.201C291.044 394.225 262.05 401.338 232.814 401.338ZM104.278 330.221C106.345 330.221 108.349 331.076 109.786 332.63C129.64 354.11 154.995 370.065 183.108 378.766C225.81 391.984 271.104 387.782 310.646 366.933C348.901 346.762 377.342 313.348 391.121 272.526C372.145 252.935 349.639 237.919 324.944 228.091C330.877 241.093 333.956 255.24 333.956 269.837C333.956 273.98 330.598 277.337 326.456 277.337C322.314 277.337 318.956 273.98 318.956 269.837C318.956 252.258 313.711 235.445 303.767 221.085C290.157 217.458 276.041 215.322 261.622 214.771C221.948 213.252 183.681 223.85 151.04 244.996C148.618 253.017 147.39 261.365 147.39 269.838C147.39 317.139 185.872 355.621 233.173 355.621C250.808 355.621 267.747 350.312 282.158 340.269C296.251 330.447 306.974 316.829 313.167 300.886C314.667 297.025 319.011 295.109 322.874 296.611C326.735 298.111 328.649 302.457 327.149 306.318C319.873 325.048 307.281 341.044 290.734 352.576C273.795 364.381 253.891 370.621 233.173 370.621C177.601 370.621 132.39 325.41 132.39 269.838C132.39 265.931 132.613 262.046 133.056 258.196C130.264 260.506 127.528 262.9 124.848 265.383C103.894 284.791 87.934 307.972 77.413 334.28C77.346 334.447 77.142 334.956 77.602 335.494C78.03 335.997 78.505 335.889 78.684 335.848L102.616 330.409C103.167 330.283 103.725 330.221 104.278 330.221ZM232.986 302.453C224.09 302.453 215.629 299.195 208.991 293.178C201.909 286.757 197.751 277.963 197.283 268.415C196.816 258.867 200.094 249.709 206.514 242.627C212.935 235.545 221.729 231.388 231.277 230.92C240.825 230.449 249.983 233.732 257.065 240.151C264.147 246.572 268.305 255.366 268.773 264.914C269.24 274.462 265.962 283.62 259.541 290.702C253.12 297.784 244.326 301.941 234.778 302.409C234.18 302.439 233.582 302.453 232.986 302.453ZM233.053 245.877C232.707 245.877 232.36 245.885 232.012 245.902C226.466 246.173 221.358 248.589 217.628 252.702C213.899 256.815 211.994 262.135 212.266 267.681C212.537 273.228 214.953 278.336 219.066 282.066C223.179 285.795 228.496 287.705 234.045 287.427C239.591 287.156 244.699 284.74 248.429 280.627C252.159 276.514 254.063 271.193 253.791 265.648C253.52 260.102 251.104 254.994 246.991 251.263C243.136 247.769 238.22 245.877 233.053 245.877ZM69.625 239.91C65.483 239.91 62.125 236.553 62.125 232.41V216.821C62.125 214.762 62.971 212.795 64.465 211.379C90.589 186.611 122.95 166.29 158.053 152.611C191.178 139.703 226.016 132.881 258.802 132.881C274.393 132.881 289.859 133.961 304.77 136.09C308.87 136.676 311.72 140.475 311.134 144.575C310.548 148.675 306.747 151.511 302.649 150.939C288.438 148.91 273.686 147.88 258.802 147.88C227.86 147.88 194.905 154.349 163.498 166.587C131.231 179.16 101.435 197.62 77.124 220.073V232.409C77.125 236.553 73.767 239.91 69.625 239.91ZM37.501 176.087C35.544 176.087 33.627 175.32 32.197 173.891L2.19697 143.891C0.671966 142.365 -0.123034 140.256 0.015966 138.104C0.154966 135.951 1.21497 133.961 2.92397 132.645C26.925 114.161 50.935 98.018 74.288 84.666C77.884 82.608 82.466 83.857 84.521 87.454C86.577 91.05 85.329 95.632 81.733 97.687C61.171 109.444 40.06 123.441 18.876 139.357L39.486 159.967L222.194 96.865C268.581 80.844 322.612 75.458 374.33 81.697C388.579 83.417 402.488 86.004 415.882 89.392C381.723 71.14 348.658 58.846 316.088 52.211C248.09 38.36 180.642 48.358 109.888 82.78C106.164 84.592 101.675 83.042 99.863 79.317C98.051 75.592 99.601 71.103 103.326 69.292C177.158 33.373 247.732 22.978 319.082 37.513C379.897 49.902 442.044 81.02 509.076 132.644C512.358 135.171 512.969 139.881 510.442 143.163C507.914 146.444 503.204 147.055 499.924 144.529C433.586 93.437 318.844 79.356 227.091 111.043L39.948 175.676C39.147 175.952 38.321 176.087 37.501 176.087Z" fill="#673231"/>
</g>
<defs>
<clipPath id="clip0_5_135">
<rect width="512" height="512" fill="white"/>
</clipPath>
</defs>
</svg>
