<svg width="512" height="512" viewBox="0 0 512 512" fill="none" xmlns="http://www.w3.org/2000/svg">
<g clip-path="url(#clip0_5_121)">
<path d="M196.231 199.81C198.15 199.81 200.07 199.078 201.534 197.613C212.596 186.55 230.598 186.55 241.661 197.613C244.59 200.543 249.34 200.542 252.268 197.613C255.197 194.684 255.197 189.935 252.268 187.006C235.356 170.095 207.838 170.095 190.926 187.006C187.997 189.936 187.997 194.685 190.926 197.613C192.391 199.077 194.311 199.81 196.231 199.81Z" fill="#673231"/>
<path d="M137.228 187.006C120.317 170.095 92.7987 170.095 75.887 187.006C72.9579 189.936 72.9579 194.685 75.887 197.613C78.8161 200.542 83.5653 200.542 86.4934 197.613C97.5559 186.55 115.558 186.55 126.621 197.613C128.085 199.077 130.005 199.81 131.924 199.81C133.843 199.81 135.763 199.078 137.227 197.613C140.159 194.684 140.159 189.935 137.228 187.006Z" fill="#673231"/>
<path d="M293.859 192.97C293.95 192.97 294.041 192.969 294.132 192.965C298.273 192.817 301.508 189.34 301.36 185.2C301.357 185.117 301.235 176.665 307.49 170.41C310.419 167.481 310.419 162.732 307.49 159.803C304.562 156.874 299.813 156.874 296.884 159.803C285.962 170.725 286.347 185.129 286.369 185.737C286.513 189.785 289.84 192.97 293.859 192.97Z" fill="#673231"/>
<path d="M183.106 250.656C172.613 261.148 155.54 261.147 145.049 250.656C142.119 247.727 137.37 247.727 134.442 250.656C131.513 253.585 131.513 258.334 134.442 261.262C142.614 269.434 153.344 273.518 164.077 273.518C174.808 273.518 185.543 269.432 193.713 261.262C196.642 258.333 196.642 253.585 193.713 250.656C190.785 247.727 186.036 247.727 183.106 250.656Z" fill="#673231"/>
<path d="M362.244 197.458C362.244 145.755 336.414 97.9269 293.152 69.5178C268.224 53.1422 239.219 44.4858 209.273 44.4858C164.068 44.4858 121.421 64.3276 92.2687 98.922C69.0757 126.431 56.3022 161.424 56.3022 197.458C56.3022 237.499 71.6728 275.359 99.5819 304.066C127.434 332.713 164.732 349.15 204.58 350.345C206.052 350.395 207.587 350.419 209.274 350.419C293.622 350.419 362.244 281.801 362.244 197.458ZM347.244 197.458C347.244 272.192 287.506 333.232 213.271 335.356C213.287 334.843 213.313 334.331 213.313 333.818V327.972C234.556 319.595 253.358 305.888 267.939 288.098C282.829 269.931 292.638 248.293 296.473 225.254C320.772 216.65 337.345 193.527 337.345 167.377C337.345 156.022 332.923 145.355 324.903 137.347C317.7 130.135 308.356 125.845 298.296 125.045V96.9139C298.296 95.2638 298.26 93.6128 298.2 91.9637C329.167 118.039 347.244 156.39 347.244 197.458ZM110.336 293.61C85.1644 267.72 71.3018 233.572 71.3018 197.459C71.3018 164.96 82.8213 133.399 103.737 108.591C109.768 101.435 116.446 94.9878 123.638 89.2866C128.82 97.0809 138.799 109.29 155.716 120.191C156.973 121.001 158.38 121.387 159.772 121.387C162.236 121.387 164.649 120.174 166.085 117.949C168.329 114.467 167.325 109.824 163.842 107.581C148.735 97.8469 140.072 86.9525 135.899 80.6113C157.634 66.9467 182.971 59.4884 209.273 59.4884C235.174 59.4884 260.28 66.6827 282.117 80.2912C282.883 85.7645 283.294 91.3377 283.294 96.9159V125.962C249.19 130.852 219.104 129.32 193.78 121.399C189.827 120.162 185.619 122.364 184.382 126.317C183.145 130.27 185.347 134.478 189.3 135.714C206.423 141.071 225.422 143.754 246.106 143.754C260.404 143.754 275.512 142.466 291.354 139.9H294.854C302.202 139.9 309.103 142.758 314.294 147.958C319.485 153.14 322.343 160.037 322.343 167.38C322.343 188.42 308.149 206.867 287.826 212.238C284.878 213.017 282.695 215.505 282.305 218.529C279.455 240.572 270.475 261.341 256.336 278.593C242.367 295.638 224.042 308.462 203.344 315.678C200.331 316.729 198.313 319.571 198.313 322.761V333.821C198.313 334.209 198.295 334.598 198.281 334.986C164.886 332.358 133.873 317.818 110.336 293.61Z" fill="#673231"/>
<path d="M484.695 28.8681C474.733 18.9047 461.487 13.4175 447.4 13.4175C433.843 13.4175 421.066 18.4997 411.244 27.7621C401.422 18.4987 388.645 13.4175 375.088 13.4175C361 13.4175 347.756 18.9047 337.79 28.8711C334.301 32.3643 331.374 36.2664 329.027 40.4586C294.758 14.3076 252.622 0 209.281 0C156.616 0 107.141 20.3408 69.9697 57.2752C32.7962 94.2127 12.1454 143.555 11.8234 196.211C11.2974 281.082 64.8205 356.632 145.007 384.206C155.799 387.922 162.459 398.854 160.844 410.197L157.684 432.358C157.099 436.459 159.949 440.257 164.05 440.842C164.409 440.893 164.765 440.918 165.118 440.918C168.792 440.918 172.001 438.217 172.535 434.476L175.696 412.313C178.323 393.861 167.471 376.076 149.889 370.021C75.7929 344.542 26.337 274.731 26.824 196.304C27.121 147.637 46.1988 102.041 80.5421 67.9167C114.884 33.7933 160.605 15.0006 209.281 15.0006C250.85 15.0006 291.219 29.2381 323.498 55.1762C322.744 58.7503 322.346 62.4254 322.346 66.1626C322.346 80.2401 327.831 93.4837 337.793 103.457L385.895 151.558C389.76 166.471 391.739 181.898 391.739 197.457C391.739 275.342 342.291 344.686 268.691 370.012C251.099 376.074 240.251 393.976 242.898 412.585L248.499 451.791C250.115 463.172 246.722 474.677 239.188 483.355C231.663 492.025 220.763 496.997 209.282 496.997C190.812 496.997 174.951 484.454 170.711 466.492C169.759 462.461 165.717 459.968 161.687 460.916C157.656 461.868 155.16 465.907 156.111 469.938C161.958 494.702 183.822 511.997 209.282 511.997C225.111 511.997 240.139 505.141 250.516 493.186C260.899 481.224 265.577 465.366 263.349 449.674L257.749 410.466C256.113 398.966 262.77 387.916 273.575 384.194C353.225 356.786 406.74 281.741 406.74 197.455C406.74 186.074 405.754 174.757 403.833 163.627C406.226 164.237 408.711 164.554 411.245 164.554C419.21 164.554 426.701 161.451 432.334 155.817L472.325 115.826C475.255 112.896 475.255 108.147 472.325 105.219C469.396 102.29 464.647 102.29 461.719 105.219L421.727 145.211C418.926 148.012 415.204 149.554 411.245 149.554C407.287 149.554 403.564 148.012 400.764 145.211L348.403 92.8536C341.273 85.7153 337.346 76.236 337.346 66.1626C337.346 56.0892 341.272 46.6098 348.4 39.4745C355.529 32.3453 365.007 28.4181 375.088 28.4181C385.168 28.4181 394.645 32.3453 401.782 39.4815L405.952 43.6407C408.881 46.5638 413.625 46.5598 416.552 43.6347L420.712 39.4745C427.842 32.3453 437.32 28.4181 447.4 28.4181C457.481 28.4181 466.959 32.3453 474.089 39.4745C484.963 50.349 488.159 66.5426 482.232 80.7312C480.635 84.5533 482.439 88.9465 486.261 90.5435C490.082 92.1396 494.475 90.3365 496.073 86.5144C504.356 66.6896 499.89 44.0617 484.695 28.8681Z" fill="#673231"/>
</g>
<defs>
<clipPath id="clip0_5_121">
<rect width="512" height="512" fill="white"/>
</clipPath>
</defs>
</svg>
