<svg width="512" height="512" viewBox="0 0 512 512" fill="none" xmlns="http://www.w3.org/2000/svg">
<g clip-path="url(#clip0_5_44)">
<path d="M497.5 372.454H429.129C428.541 358.592 430.995 349.014 425.241 335.578C423.61 331.77 419.205 330.005 415.394 331.636C411.586 333.267 409.821 337.675 411.452 341.483C415.554 351.064 413.623 357.389 414.129 372.455H367.005V348.891C367.005 344.748 363.648 341.391 359.505 341.391C355.362 341.391 352.005 344.748 352.005 348.891V372.455H309.956L337.927 307.643C360.768 314.221 390.628 322.756 391.994 323.235C395.917 324.619 400.19 322.544 401.56 318.655C402.937 314.748 400.886 310.465 396.98 309.089C394.656 308.269 395.884 308.699 361.873 298.92C365.066 294.147 366.805 288.498 366.805 282.555C366.778 166.83 366.872 173.918 366.731 172.912C369.627 168.53 371.314 163.282 371.314 157.648C370.541 146.736 373.77 137.101 366.211 126.445C367.316 123.843 366.595 125.053 366.805 71.7044C366.805 39.9301 339.678 12.9249 306.838 11.1819C300.126 4.46186 290.855 0.298828 280.63 0.298828H226.737C210.006 0.298828 193.908 5.30287 180.183 14.7689C176.774 17.121 175.916 21.791 178.268 25.202C180.62 28.6101 185.289 29.4691 188.701 27.117C199.91 19.386 213.062 15.2999 226.737 15.2999H280.63C292.794 15.2999 302.69 25.196 302.69 37.3601C302.69 60.7913 285.277 80.6385 262.186 83.5275C248.956 85.1825 234.752 85.5205 219.972 84.5295C200.168 83.2135 182.23 96.0156 177.036 114.709H168.444C165.374 114.709 162.418 115.21 159.655 116.135C161.036 90.8815 155.29 71.7684 168.709 48.7022C170.792 45.1222 169.578 40.5311 165.998 38.4481C162.417 36.3641 157.826 37.5791 155.744 41.1592C148.489 53.6282 144.655 67.8824 144.655 82.3825V128.175C138.702 138.045 141.344 146.157 140.684 157.649C140.684 162.873 142.135 167.765 144.655 171.943V282.557C144.655 288.543 146.447 294.255 149.683 299.049C105.42 311.774 119.374 307.667 116.599 308.562C96.4238 314.917 82.8697 333.4 82.8697 354.554V372.456H14.5001C6.50505 372.456 0 378.961 0 386.956V497.204C0 505.199 6.50505 511.704 14.5001 511.704H201.641C205.784 511.704 209.141 508.347 209.141 504.204C209.141 500.061 205.784 496.704 201.641 496.704H15.0001V387.454H497V496.702H234.327C230.184 496.702 226.827 500.059 226.827 504.202C226.827 508.345 230.184 511.702 234.327 511.702H497.5C505.495 511.702 512 505.197 512 497.202V386.954C512 378.959 505.495 372.454 497.5 372.454ZM261.564 266.459C268.638 266.459 275.487 265.473 281.979 263.631V283.214C267.055 295.513 245.275 295.789 230.019 283.213V263.631C243.953 267.584 253.749 266.151 261.564 266.459ZM220.045 294.426C228.331 301.401 238.128 305.598 248.232 307.015V372.452H218.551L191.047 302.763L220.045 294.426ZM293.62 372.452H263.231V307.088C273.525 305.746 283.522 301.525 291.954 294.426L323.393 303.464L293.62 372.452ZM296.98 280.263V257.543C320.462 244.888 336.456 220.061 336.456 191.568V185.406C341.82 185.221 345.886 186.001 351.807 184.154V282.553C351.807 287.715 349.548 291.137 345.827 294.305C334.969 291.184 307.893 283.401 296.98 280.263ZM356.315 142.466V157.647C356.315 164.683 350.591 170.407 343.555 170.407H336.455V129.707H343.555C350.591 129.706 356.315 135.43 356.315 142.466ZM351.806 71.7024V115.958C345.677 114.046 341.665 114.932 333.699 114.706C331.753 113.118 310.969 102.615 310.969 82.5415V65.3533C316.514 54.4902 319.551 39.5931 316.472 27.917C336.37 33.5691 351.806 51.6162 351.806 71.7024ZM218.971 99.4936C234.702 100.547 249.87 100.183 264.048 98.4096C276.218 96.8866 287.196 91.8135 296.005 84.3045C296.714 101.706 307.643 115.519 321.455 124.689V191.568C321.455 224.592 294.588 251.459 261.564 251.459H250.435C217.412 251.459 190.544 224.593 190.544 191.568C190.544 183.612 190.546 126.654 190.546 124.817C191.126 110.158 203.748 98.4546 218.971 99.4936ZM175.547 129.706V170.406H168.445C161.409 170.406 155.685 164.682 155.685 157.646V142.465C155.685 135.429 161.409 129.705 168.445 129.705H175.547V129.706ZM159.656 282.554V183.98C165.891 186.067 170.25 185.204 175.545 185.406V191.568C175.545 220.06 191.539 244.887 215.02 257.542V280.263L165.809 294.41C161.946 291.687 159.656 287.295 159.656 282.554ZM97.8708 354.552C97.8708 340.008 107.171 327.297 121.023 322.894L176.563 306.927L202.426 372.455H159.656V348.891C159.656 344.748 156.299 341.391 152.156 341.391C148.013 341.391 144.656 344.748 144.656 348.891V372.455H97.8708V354.552Z" fill="#673231"/>
<path d="M101.735 425.677L84.1942 423.127L76.3502 407.232C73.6032 401.667 65.6462 401.667 62.8992 407.232L55.0542 423.127L37.5132 425.677C31.3732 426.568 28.9122 434.136 33.3562 438.47L46.0492 450.841L43.0532 468.312C42.0032 474.424 48.4382 479.107 53.9352 476.218L69.6242 467.97L85.3122 476.218C90.7872 479.097 97.2462 474.437 96.1942 468.312L93.1982 450.841L105.891 438.47C110.335 434.138 107.878 426.569 101.735 425.677ZM77.7492 449.49L78.8432 455.869C75.2382 454.443 71.2352 450.178 66.1352 452.857L60.4062 455.869L61.5002 449.49C62.4742 443.82 57.1922 441.339 54.7092 438.335C58.4672 437.368 64.2142 438.462 66.7612 433.302L69.6252 427.499C71.7092 430.78 72.4412 436.578 78.1362 437.404L84.5402 438.335C82.0622 441.333 76.7752 443.819 77.7492 449.49Z" fill="#673231"/>
<path d="M194.924 425.677L177.383 423.128L169.538 407.232C166.791 401.667 158.834 401.667 156.087 407.232L148.242 423.127L130.701 425.677C124.561 426.568 122.1 434.136 126.544 438.47L139.237 450.841L136.241 468.312C135.191 474.424 141.626 479.107 147.123 476.218L162.812 467.97L178.5 476.218C183.993 479.106 190.431 474.425 189.383 468.312L186.387 450.841L199.079 438.47C203.521 434.139 201.067 426.569 194.924 425.677ZM170.937 449.49L172.032 455.869L166.303 452.857C161.672 450.423 158.354 453.57 153.594 455.869L154.688 449.49C155.662 443.82 150.38 441.339 147.897 438.335C151.655 437.368 157.402 438.462 159.949 433.302L162.813 427.498C164.897 430.778 165.629 436.578 171.324 437.404L177.728 438.335C175.25 441.333 169.964 443.819 170.937 449.49Z" fill="#673231"/>
<path d="M474.485 425.677L456.944 423.127L449.099 407.232C446.352 401.667 438.396 401.667 435.648 407.232L427.804 423.127L410.263 425.677C404.123 426.568 401.662 434.136 406.106 438.47L418.799 450.841L415.803 468.312C414.753 474.421 421.187 479.109 426.685 476.218L442.373 467.97L458.062 476.218C463.55 479.103 469.996 474.433 468.944 468.312L465.948 450.841L478.641 438.47C483.085 434.138 480.628 426.569 474.485 425.677ZM450.499 449.49L451.593 455.869C446.691 453.502 445.327 451.996 442.374 451.996C439.423 451.996 438.049 453.506 433.156 455.869L434.25 449.49C435.224 443.82 429.942 441.339 427.459 438.335C431.208 437.37 436.96 438.467 439.511 433.302L442.374 427.499C444.455 430.774 445.191 436.578 450.886 437.404L457.29 438.335C454.813 441.333 449.525 443.819 450.499 449.49Z" fill="#673231"/>
<path d="M381.298 425.677L363.757 423.127L355.912 407.232C353.165 401.667 345.208 401.667 342.461 407.232L334.616 423.128L317.075 425.677C310.936 426.569 308.475 434.136 312.919 438.47L325.611 450.841L322.615 468.312C321.567 474.422 328 479.109 333.498 476.218L349.186 467.97L364.875 476.218C370.363 479.103 376.809 474.433 375.757 468.312L372.761 450.841L385.454 438.47C389.897 434.138 387.441 426.569 381.298 425.677ZM357.312 449.49L358.406 455.869C354.808 454.446 350.797 450.177 345.697 452.857L339.968 455.869C340.209 452.006 343.03 446.874 338.906 442.851L334.272 438.334C338.025 437.368 343.776 438.461 346.323 433.301L349.187 427.497C351.265 430.768 352.004 436.577 357.699 437.403L364.103 438.334C361.625 441.333 356.337 443.819 357.312 449.49Z" fill="#673231"/>
<path d="M229.429 468.312C228.379 474.422 234.813 479.108 240.311 476.218L256 467.97L271.689 476.218C277.159 479.094 283.626 474.453 282.571 468.312L279.575 450.841L292.268 438.47C296.71 434.138 294.254 426.569 288.111 425.677L270.57 423.127L262.725 407.232C259.978 401.667 252.021 401.667 249.274 407.232L241.429 423.127L223.888 425.677C217.748 426.568 215.287 434.136 219.731 438.47L232.424 450.841L229.429 468.312ZM253.136 433.302L256 427.498C258.078 430.769 258.817 436.578 264.512 437.404L270.916 438.335C268.438 441.333 263.151 443.819 264.125 449.49L265.219 455.869L259.49 452.857C254.859 450.423 251.54 453.57 246.781 455.869C247.024 451.978 249.838 446.869 245.719 442.851L241.084 438.334C244.842 437.368 250.589 438.462 253.136 433.302Z" fill="#673231"/>
<path d="M256 223.104C280.534 223.104 288.698 190.404 273.701 190.404C269.558 190.404 266.201 193.761 266.201 197.904C266.201 203.528 261.625 208.104 256 208.104C250.375 208.104 245.799 203.528 245.799 197.904C245.799 193.761 242.442 190.404 238.299 190.404C234.156 190.404 230.799 193.761 230.799 197.904C230.799 211.799 242.105 223.104 256 223.104Z" fill="#673231"/>
<path d="M287.252 164.773C291.395 164.773 294.752 161.416 294.752 157.273V150.055C294.752 145.912 291.395 142.555 287.252 142.555C283.109 142.555 279.752 145.912 279.752 150.055V157.273C279.752 161.416 283.109 164.773 287.252 164.773Z" fill="#673231"/>
<path d="M224.463 164.773C228.606 164.773 231.963 161.416 231.963 157.273V150.055C231.963 145.912 228.606 142.555 224.463 142.555C220.32 142.555 216.963 145.912 216.963 150.055V157.273C216.963 161.416 220.32 164.773 224.463 164.773Z" fill="#673231"/>
</g>
<defs>
<clipPath id="clip0_5_44">
<rect width="512" height="512" fill="white"/>
</clipPath>
</defs>
</svg>
